<?xml version="1.0" encoding="UTF-8"?>
<svg xmlns="http://www.w3.org/2000/svg" id="Icon_Orange" viewBox="0 0 32 32">
  <defs>
    <style>.cls-1{fill:#f96915;}</style>
  </defs>
  <path class="cls-1" d="M20.05,22.21c-.37,0-.73-.21-.9-.56-.97-1.99-2.36-3.3-4.13-3.89-3.61-1.2-7.67,.85-7.71,.87-.49,.25-1.09,.06-1.35-.43-.25-.49-.06-1.09,.43-1.35,.2-.1,4.86-2.46,9.26-.99,2.3,.77,4.08,2.42,5.3,4.92,.24,.5,.03,1.1-.46,1.34-.14,.07-.29,.1-.44,.1Z"></path>
  <path class="cls-1" d="M14.73,28.62s-.08,0-.12,0c-3.72-.02-7.44-1.17-8.46-2.19-.39-.39-.39-1.02,0-1.41s1.02-.39,1.41,0c.46,.46,3.5,1.59,7.06,1.61,.05,0,.1,0,.15,0,3.67,0,7.9-.73,8.55-1.19,1.39-1.46,.42-16.71-.27-18.57-.32-.75-4.17-1.55-6.31-1.61-.22,.33-.55,1.11-.8,1.9,.25,.49,.5,.95,.66,1.18,1.15,.48,2.46,.67,2.74,.39,.27-.27,.67-.36,1.03-.24,.36,.12,.62,.44,.67,.82l.18,1.47c.13,3.41-1.09,5.98-3.55,7.53-.47,.29-1.08,.15-1.38-.31-.29-.47-.15-1.08,.31-1.38,1.84-1.16,2.72-3.07,2.62-5.67l-.02-.12c-1.48,.17-3.21-.56-3.65-.76-.11-.05-.21-.12-.29-.2-.46-.46-1.07-1.69-1.31-2.2-.1-.22-.12-.47-.06-.7,1.05-3.72,2.14-3.72,2.55-3.72,.07,0,7.46,.22,8.46,2.92,.47,1.26,2.32,18.16-.23,20.71-1.16,1.16-7.03,1.74-9.97,1.74Z"></path>
  <path class="cls-1" d="M12.85,24.52c-2.57,0-4.03-1.61-4.1-1.69-.37-.41-.33-1.04,.08-1.41,.41-.37,1.04-.33,1.41,.08,.07,.07,1.34,1.4,3.56,.92,.54-.11,1.07,.23,1.19,.77,.11,.54-.23,1.07-.77,1.19-.48,.1-.93,.15-1.36,.15Z"></path>
</svg>
