<?xml version="1.0" encoding="UTF-8"?>
<svg xmlns="http://www.w3.org/2000/svg" id="Icon_Orange" viewBox="0 0 32 32">
  <defs>
    <style>.cls-1{fill:#f96915;}</style>
  </defs>
  <path class="cls-1" d="M24.52,5.17c.97,.57,1.74,1.34,2.31,2.31,.57,.97,.85,2.03,.85,3.16,0,.87-.17,1.7-.52,2.49-.34,.79-.83,1.49-1.46,2.1l-7.94,7.94c-.9,.89-1.95,1.57-3.17,2.02-1.04,.38-2.15,.54-3.25,.54h-3.71l-1.26,1.26c-.38,.38-.99,.38-1.37,0h0c-.38-.38-.38-.99,0-1.37l11.55-11.57c.39-.39,1.01-.39,1.4,0h0c.39,.39,.39,1.01,0,1.4l-8.36,8.34h1.87c.64,0,1.29-.06,1.91-.23,1.16-.32,2.15-.89,2.97-1.72h-2.28l3.44-1.16,3.71-3.71h-2.28l3.44-1.16,1.98-1.98c.45-.43,.79-.91,1.03-1.46s.37-1.13,.37-1.73c0-.79-.2-1.52-.59-2.19s-.93-1.2-1.6-1.6-1.4-.59-2.19-.59c-.61,0-1.19,.12-1.73,.35s-1.03,.57-1.46,1.02l-7.94,7.97c-.59,.57-1.05,1.22-1.38,1.95-.33,.73-.53,1.5-.59,2.31l-1.98,1.98v-1.19c0-1.11,.15-2.22,.54-3.25,.45-1.22,1.12-2.27,2.02-3.16l7.97-7.94c.59-.63,1.28-1.12,2.07-1.46s1.62-.52,2.49-.52c1.14,0,2.19,.28,3.16,.85Z"></path>
</svg>
