<?xml version="1.0" encoding="UTF-8"?>
<svg xmlns="http://www.w3.org/2000/svg" id="Icon_Orange" viewBox="0 0 32 32">
  <defs>
    <style>.cls-1{fill:#f96915;}</style>
  </defs>
  <rect class="cls-1" x="27.37" y="2.63" width="2" height="26.74"></rect>
  <rect class="cls-1" x="2.6" y="2.63" width="2" height="26.74"></rect>
  <path class="cls-1" d="M24.71,15.54l-3.54-3.52c-.38-.38-1-.38-1.38,0h0c-.38,.38-.38,1,0,1.38l1.85,1.85H10.34l1.85-1.85c.38-.38,.38-1,0-1.38h0c-.38-.38-1-.38-1.38,0l-3.54,3.52-.67,.71,.67,.71,3.54,3.52c.38,.38,1,.38,1.38,0h0c.38-.38,.38-1,0-1.38l-1.85-1.86h11.3l-1.85,1.86c-.38,.38-.38,1,0,1.38h0c.38,.38,1,.38,1.38,0l3.54-3.52,.67-.71-.67-.71Z"></path>
</svg>
